<svg width="27" height="18" viewBox="0 0 27 18" fill="none" xmlns="http://www.w3.org/2000/svg">
<g clip-path="url(#clip0_104_33)">
<path d="M0.621016 1.18115C0.405016 1.5749 0.27002 2.02491 0.27002 2.50303V14.9624C0.27002 15.4405 0.405016 15.8905 0.621016 16.2562L7.85701 8.71865L0.621016 1.18115Z" fill="white"/>
<path d="M16.1189 11.8407C15.4169 12.572 14.4719 12.9657 13.4999 12.9657C12.5009 12.9657 11.5559 12.572 10.8809 11.8407L8.77492 9.64697L1.56592 17.1564C1.91692 17.3532 2.29491 17.4657 2.72691 17.4657H24.3269C24.7319 17.4657 25.1369 17.3532 25.4879 17.1564L18.2789 9.64697L16.1189 11.8407Z" fill="white"/>
<path d="M26.3791 1.18115L19.1431 8.71865L26.3791 16.2562C26.5951 15.8905 26.7301 15.4405 26.7301 14.9624V2.50303C26.7301 1.99678 26.5951 1.54678 26.3791 1.18115Z" fill="white"/>
<path d="M11.772 10.8843C12.231 11.3624 12.879 11.6155 13.5 11.6155C14.121 11.6155 14.742 11.3624 15.228 10.8843L25.461 0.224896C25.11 0.0280205 24.732 -0.0844727 24.327 -0.0844727H2.727C2.322 -0.0844727 1.91702 0.0280205 1.59302 0.224896L11.772 10.8843Z" fill="white"/>
</g>
<defs>
<clipPath id="clip0_104_33">
<rect width="27" height="18" fill="white"/>
</clipPath>
</defs>
</svg>
