<svg width="29" height="39" viewBox="0 0 29 39" fill="none" xmlns="http://www.w3.org/2000/svg">
<path d="M14.4994 0C6.5831 0 0.141968 6.44113 0.141968 14.3582C0.141968 16.4233 0.564644 18.395 1.39762 20.219C4.98738 28.0743 11.8699 36.3677 13.8943 38.7222C14.046 38.8982 14.2671 38.9996 14.4998 38.9996C14.7325 38.9996 14.9536 38.8982 15.1053 38.7222C17.1289 36.3681 24.0114 28.0751 27.6024 20.219C28.4358 18.395 28.858 16.4233 28.858 14.3582C28.8572 6.44113 22.4161 0 14.4994 0ZM14.4994 21.8159C10.3872 21.8159 7.0413 18.47 7.0413 14.3578C7.0413 10.2452 10.3872 6.89933 14.4994 6.89933C18.6116 6.89933 21.9575 10.2452 21.9575 14.3578C21.9579 18.47 18.612 21.8159 14.4994 21.8159Z" fill="#CE7F54"/>
</svg>
