<svg width="25" height="25" viewBox="0 0 25 25" fill="none" xmlns="http://www.w3.org/2000/svg">
<g clip-path="url(#clip0_75_285)">
<path d="M19.0066 16.5382C18.1899 15.7318 17.1702 15.7318 16.3587 16.5382C15.7396 17.1521 15.1205 17.7659 14.5119 18.3902C14.3454 18.5619 14.2049 18.5983 14.002 18.4838C13.6015 18.2653 13.1749 18.0885 12.7899 17.8492C10.9951 16.7203 9.49168 15.2688 8.15991 13.6353C7.49922 12.8238 6.91136 11.955 6.50038 10.977C6.41715 10.7793 6.43275 10.6492 6.59402 10.488C7.21309 9.8897 7.81656 9.27583 8.42522 8.66197C9.27319 7.80879 9.27319 6.80996 8.42002 5.95159C7.93621 5.46257 7.4524 4.98397 6.96859 4.49495C6.46917 3.99554 5.97495 3.49092 5.47033 2.9967C4.65358 2.20076 3.63394 2.20076 2.82238 3.0019C2.19811 3.61577 1.59985 4.24524 0.965174 4.84871C0.377318 5.40535 0.0807888 6.08685 0.0183617 6.88279C-0.0804813 8.17816 0.236857 9.40069 0.684251 10.592C1.59985 13.0579 2.99406 15.248 4.68479 17.2561C6.96859 19.9717 9.69457 22.1202 12.8836 23.6705C14.3194 24.3676 15.8072 24.9034 17.4251 24.9919C18.5384 25.0543 19.506 24.7734 20.2812 23.9046C20.8118 23.3115 21.4101 22.7705 21.9719 22.2035C22.8043 21.3607 22.8095 20.341 21.9823 19.5087C20.9939 18.5151 20.0003 17.5266 19.0066 16.5382Z" fill="white"/>
<path d="M18.013 12.3918L19.9327 12.064C19.6309 10.3004 18.7986 8.70335 17.5344 7.434C16.1974 6.09702 14.5067 5.25425 12.6443 4.99414L12.3738 6.92418C13.8148 7.12707 15.1258 7.77735 16.161 8.8126C17.1391 9.79063 17.7789 11.0288 18.013 12.3918Z" fill="white"/>
<path d="M21.0147 4.04736C18.7985 1.8312 15.9945 0.431788 12.8992 0L12.6287 1.93004C15.3026 2.3046 17.7269 3.51673 19.6413 5.42596C21.4569 7.24155 22.6482 9.53575 23.08 12.0588L24.9996 11.7311C24.495 8.80743 23.1164 6.15428 21.0147 4.04736Z" fill="white"/>
</g>
<defs>
<clipPath id="clip0_75_285">
<rect width="25" height="25" fill="white"/>
</clipPath>
</defs>
</svg>
