<svg width="24" height="24" viewBox="0 0 24 24" fill="none" xmlns="http://www.w3.org/2000/svg">
<path d="M23.7548 13.894C24.5359 7.87226 23.3796 4.07062 21.2937 2.35113L21.2948 2.35014C17.9283 -0.586275 6.55878 -1.02089 2.53113 2.48202C0.722399 4.19551 0.0853057 6.71029 0.0154872 9.82354C-0.0543312 12.9378 -0.13724 18.7717 5.79842 20.3543H5.80387L5.79842 22.7711C5.79842 22.7711 5.75805 23.7503 6.44096 23.9471C7.22206 24.1789 7.57551 23.7243 10.005 21.0666C14.0675 21.3893 17.1875 20.65 17.5421 20.5421C18.3625 20.2903 23.0043 19.7278 23.7548 13.894ZM10.4053 19.3661C10.4053 19.3661 7.83406 22.3025 7.03442 23.0649C6.7726 23.3126 6.48569 23.2897 6.49005 22.7981C6.49005 22.4754 6.50969 18.7856 6.50969 18.7856C1.47731 17.4648 1.77404 12.4972 1.82858 9.89848C1.88313 7.29877 2.4024 5.16965 3.93405 3.73591C7.46751 0.70159 17.4352 1.37999 19.9748 3.56606C23.0796 6.08684 21.9745 13.2086 21.981 13.4513C21.3428 18.321 17.5814 18.6298 16.8897 18.8406C16.5941 18.9305 13.8504 19.5769 10.4053 19.3661Z" fill="#9149D9"/>
<path d="M11.8279 4.30664C11.4079 4.30664 11.4079 4.90611 11.8279 4.91111C15.0865 4.93409 17.7702 7.01425 17.7996 10.8299C17.7996 11.2325 18.4432 11.2275 18.4378 10.8249H18.4367C18.4018 6.71352 15.4716 4.32962 11.8279 4.30664Z" fill="#9149D9"/>
<path d="M16.1144 10.197C16.1045 10.5947 16.7471 10.6137 16.7525 10.211C16.806 7.94402 15.2798 6.07667 12.4118 5.87985C11.9918 5.85187 11.9482 6.45634 12.3671 6.48431C14.8544 6.65716 16.1645 8.21179 16.1144 10.197Z" fill="#9149D9"/>
<path d="M15.4267 12.776C14.8878 12.4903 14.3391 12.6681 14.1122 12.9489L13.6376 13.5114C13.3965 13.7971 12.946 13.7592 12.946 13.7592C9.65799 12.9629 8.77871 9.81164 8.77871 9.81164C8.77871 9.81164 8.73835 9.38502 9.03944 9.15622L9.63289 8.70662C9.92962 8.49081 10.1173 7.97127 9.81508 7.46072C9.0078 6.1249 8.46562 5.66431 8.18962 5.31062C7.89944 4.97791 7.46307 4.90298 7.00925 5.12778H6.99944C6.0558 5.63333 5.02271 6.5795 5.35325 7.55364C5.91725 8.58073 6.95362 11.8548 10.2569 14.3287C11.8093 15.4986 14.266 16.6976 15.3089 16.9743L15.3187 16.9883C16.3464 17.302 17.3456 16.3189 17.8791 15.4287V15.4217C18.1158 14.9911 18.0373 14.5834 17.6915 14.3167C17.0784 13.7691 16.1533 13.1647 15.4267 12.776Z" fill="#9149D9"/>
<path d="M12.8611 8.10999C13.9095 8.16594 14.4178 8.6675 14.4724 9.69759C14.492 10.1002 15.1302 10.0723 15.1106 9.66962C15.0407 8.3248 14.2749 7.57546 12.896 7.50552C12.476 7.48254 12.4367 8.08701 12.8611 8.10999Z" fill="#9149D9"/>
</svg>
