<svg width="24" height="25" viewBox="0 0 24 25" fill="none" xmlns="http://www.w3.org/2000/svg">
<path d="M0 24.4678L1.69038 18.3218C0.647687 16.523 0.0992315 14.4825 0.0999978 12.392C0.10268 5.85229 5.44777 0.531738 12.0158 0.531738C15.2031 0.533073 18.1948 1.76827 20.4446 4.01017C22.6941 6.25207 23.9326 9.23211 23.9315 12.4016C23.9286 18.9411 18.5827 24.2624 12.0158 24.2624C12.0154 24.2624 12.016 24.2624 12.0158 24.2624H12.0107C10.0164 24.2616 8.0571 23.7636 6.31672 22.8185L0 24.4678ZM6.60924 20.6714L6.97111 20.8849C8.49138 21.7832 10.2344 22.2584 12.012 22.2593H12.0158C17.4743 22.2593 21.9171 17.8365 21.9194 12.4008C21.9204 9.76655 20.8913 7.28948 19.0214 5.42619C17.1513 3.5629 14.665 2.53617 12.0195 2.53503C6.55656 2.53503 2.11394 6.95722 2.11183 12.3928C2.11106 14.2555 2.63442 16.0694 3.62597 17.6391L3.8616 18.0122L2.86086 21.6499L6.60924 20.6714Z" fill="#1FCC4F"/>
<path fill-rule="evenodd" clip-rule="evenodd" d="M9.03768 7.43373C8.8147 6.94011 8.57984 6.93019 8.36758 6.92161C8.19402 6.91417 7.99537 6.91455 7.7971 6.91455C7.59863 6.91455 7.27604 6.98894 7.00325 7.28553C6.73027 7.58213 5.96094 8.29929 5.96094 9.75784C5.96094 11.2166 7.02796 12.6259 7.17681 12.8239C7.32565 13.0217 9.23652 16.1105 12.2627 17.2987C14.7778 18.2864 15.2894 18.0899 15.8354 18.0405C16.3814 17.9911 17.5968 17.3233 17.8449 16.6312C18.0932 15.939 18.0932 15.3458 18.0187 15.2216C17.9442 15.0982 17.7457 15.024 17.448 14.8758C17.1503 14.7276 15.6866 14.0103 15.4136 13.9115C15.1406 13.8125 14.9421 13.7633 14.7437 14.0601C14.545 14.3565 13.9749 15.024 13.8012 15.2216C13.6274 15.4198 13.4537 15.4446 13.156 15.2962C12.8583 15.1476 11.8993 14.8348 10.7618 13.8249C9.87674 13.0392 9.27905 12.0688 9.1053 11.772C8.93174 11.4756 9.10243 11.3291 9.23614 11.1672C9.47694 10.8755 9.88095 10.3512 9.98018 10.1536C10.0794 9.95563 10.0298 9.78264 9.95547 9.63425C9.88095 9.48604 9.30223 8.02005 9.03768 7.43373Z" fill="#1FCC4F"/>
</svg>
